<svg width="313" height="227" viewBox="0 0 313 227" fill="none" xmlns="http://www.w3.org/2000/svg">
<circle cx="84" cy="52" r="7" fill="#DB4C5C"/>
<path d="M4.15039 104.59C4.15039 101.53 4.6224 98.6328 5.56641 95.8984C6.54297 93.1641 7.95898 90.7715 9.81445 88.7207C11.6699 86.6699 13.9323 85.0586 16.6016 83.8867C19.3034 82.6823 22.3633 82.0801 25.7812 82.0801C29.1667 82.0801 32.1615 82.666 34.7656 83.8379C37.3698 84.9772 39.5508 86.5397 41.3086 88.5254C43.0664 90.5111 44.3848 92.8223 45.2637 95.459C46.1751 98.0957 46.6309 100.895 46.6309 103.857C46.6309 106.917 46.1426 109.814 45.166 112.549C44.222 115.283 42.8223 117.676 40.9668 119.727C39.1113 121.777 36.8327 123.405 34.1309 124.609C31.4616 125.781 28.418 126.367 25 126.367C21.6146 126.367 18.6198 125.798 16.0156 124.658C13.4115 123.486 11.2305 121.908 9.47266 119.922C7.71484 117.936 6.38021 115.625 5.46875 112.988C4.58984 110.352 4.15039 107.552 4.15039 104.59ZM13.8184 104.395C13.8184 107.943 14.0625 110.889 14.5508 113.232C15.0391 115.576 15.7552 117.448 16.6992 118.848C17.6432 120.247 18.8314 121.24 20.2637 121.826C21.696 122.38 23.3724 122.656 25.293 122.656C27.181 122.656 28.8574 122.363 30.3223 121.777C31.7871 121.191 33.0078 120.199 33.9844 118.799C34.9609 117.367 35.6934 115.462 36.1816 113.086C36.7025 110.677 36.9629 107.666 36.9629 104.053C36.9629 100.505 36.7188 97.5586 36.2305 95.2148C35.7422 92.8711 35.026 90.9993 34.082 89.5996C33.138 88.1999 31.9336 87.2233 30.4688 86.6699C29.0365 86.084 27.3763 85.791 25.4883 85.791C23.5677 85.791 21.875 86.084 20.4102 86.6699C18.9779 87.2559 17.7734 88.265 16.7969 89.6973C15.8203 91.097 15.0716 93.0013 14.5508 95.4102C14.0625 97.7865 13.8184 100.781 13.8184 104.395ZM61.7188 135.547C61.1654 136.458 60.7585 137.337 60.498 138.184C60.2376 139.03 60.1074 139.86 60.1074 140.674C60.1074 141.976 60.4329 143.132 61.084 144.141C61.735 145.15 62.6465 145.996 63.8184 146.68C64.9902 147.363 66.3737 147.868 67.9688 148.193C69.5964 148.551 71.3704 148.73 73.291 148.73C75.9277 148.73 78.2715 148.421 80.3223 147.803C82.4056 147.184 84.1634 146.322 85.5957 145.215C87.028 144.108 88.1185 142.822 88.8672 141.357C89.6159 139.893 89.9902 138.298 89.9902 136.572C89.9902 135.173 89.7298 134.033 89.209 133.154C88.7207 132.275 88.0208 131.592 87.1094 131.104C86.1979 130.615 85.1074 130.273 83.8379 130.078C82.6009 129.915 81.2337 129.834 79.7363 129.834C78.6621 129.834 77.4577 129.834 76.123 129.834C74.7884 129.867 73.5026 129.899 72.2656 129.932C71.0286 129.964 69.9219 129.98 68.9453 129.98C67.9688 130.013 67.2852 130.029 66.8945 130.029C65.0391 130.029 63.4277 129.801 62.0605 129.346C60.7259 128.89 59.6029 128.255 58.6914 127.441C57.7799 126.628 57.0964 125.667 56.6406 124.561C56.2174 123.454 56.0059 122.266 56.0059 120.996C56.0059 119.238 56.3965 117.415 57.1777 115.527C57.959 113.639 59.2285 111.719 60.9863 109.766C59.6191 108.301 58.5775 106.624 57.8613 104.736C57.1452 102.816 56.7871 100.781 56.7871 98.6328C56.7871 96.3867 57.1777 94.2708 57.959 92.2852C58.7402 90.2669 59.8633 88.5091 61.3281 87.0117C62.8255 85.4818 64.6484 84.2773 66.7969 83.3984C68.9779 82.5195 71.4518 82.0801 74.2188 82.0801C76.7578 82.0801 79.0202 82.4544 81.0059 83.2031C82.9915 83.9518 84.7005 84.9772 86.1328 86.2793C87.0443 85.3353 87.9232 84.554 88.7695 83.9355C89.6484 83.3171 90.4622 82.8451 91.2109 82.5195C91.9596 82.1615 92.6595 81.9173 93.3105 81.7871C93.9616 81.6569 94.5475 81.5918 95.0684 81.5918C95.8822 81.5918 96.582 81.722 97.168 81.9824C97.7539 82.2103 98.2259 82.5358 98.584 82.959C98.9746 83.3496 99.2513 83.8053 99.4141 84.3262C99.6094 84.8145 99.707 85.319 99.707 85.8398C99.707 86.8815 99.3652 87.8255 98.6816 88.6719C98.0306 89.4857 97.1029 89.8926 95.8984 89.8926C94.9544 89.8926 94.0592 89.5833 93.2129 88.9648C92.3991 88.3464 91.862 87.4349 91.6016 86.2305C90.9505 86.4909 90.332 86.8164 89.7461 87.207C89.1927 87.5651 88.6393 87.9883 88.0859 88.4766C89.0625 89.8438 89.7949 91.3411 90.2832 92.9688C90.804 94.5964 91.0645 96.3053 91.0645 98.0957C91.0645 100.342 90.6738 102.474 89.8926 104.492C89.1113 106.51 87.972 108.285 86.4746 109.814C84.9772 111.312 83.1543 112.5 81.0059 113.379C78.8574 114.258 76.3997 114.697 73.6328 114.697C71.6797 114.697 69.8893 114.469 68.2617 114.014C66.6341 113.558 65.1693 112.923 63.8672 112.109C63.0534 113.184 62.4186 114.209 61.9629 115.186C61.5397 116.13 61.3281 117.025 61.3281 117.871C61.3281 118.913 61.7839 119.775 62.6953 120.459C63.6393 121.143 65.2344 121.484 67.4805 121.484C67.8385 121.484 68.571 121.484 69.6777 121.484C70.8171 121.452 72.0703 121.436 73.4375 121.436C74.8047 121.403 76.1393 121.387 77.4414 121.387C78.776 121.354 79.8014 121.338 80.5176 121.338C82.8288 121.338 84.9447 121.549 86.8652 121.973C88.8184 122.363 90.4785 123.047 91.8457 124.023C93.2454 125 94.3359 126.286 95.1172 127.881C95.8984 129.476 96.2891 131.462 96.2891 133.838C96.2891 136.735 95.7031 139.339 94.5312 141.65C93.3594 143.962 91.7155 145.931 89.5996 147.559C87.5163 149.186 85.026 150.423 82.1289 151.27C79.2643 152.148 76.123 152.588 72.7051 152.588C69.7103 152.588 67.0573 152.262 64.7461 151.611C62.4674 150.993 60.5469 150.163 58.9844 149.121C57.4219 148.079 56.2337 146.875 55.4199 145.508C54.6061 144.173 54.1992 142.773 54.1992 141.309C54.1992 139.909 54.5573 138.558 55.2734 137.256C56.0221 135.954 57.1452 134.733 58.6426 133.594C59.2611 133.854 59.7982 134.131 60.2539 134.424C60.7096 134.749 61.1979 135.124 61.7188 135.547ZM82.0312 98.1934C82.0312 95.8822 81.901 93.929 81.6406 92.334C81.4128 90.7064 80.9896 89.4043 80.3711 88.4277C79.7852 87.4186 78.9714 86.6862 77.9297 86.2305C76.9206 85.7747 75.6185 85.5469 74.0234 85.5469C72.4284 85.5469 71.11 85.7747 70.0684 86.2305C69.0267 86.6862 68.1803 87.4349 67.5293 88.4766C66.9108 89.4857 66.4714 90.8203 66.2109 92.4805C65.9505 94.1406 65.8203 96.1589 65.8203 98.5352C65.8203 100.879 65.9342 102.865 66.1621 104.492C66.4225 106.087 66.862 107.389 67.4805 108.398C68.099 109.408 68.9128 110.14 69.9219 110.596C70.9635 111.019 72.2656 111.23 73.8281 111.23C75.4232 111.23 76.7415 111.003 77.7832 110.547C78.8574 110.091 79.7038 109.342 80.3223 108.301C80.9408 107.259 81.3802 105.924 81.6406 104.297C81.901 102.637 82.0312 100.602 82.0312 98.1934ZM145.459 125C144.092 125.26 142.822 125.423 141.65 125.488C140.479 125.553 139.551 125.586 138.867 125.586C137.142 125.586 135.71 125.439 134.57 125.146C133.464 124.886 132.585 124.495 131.934 123.975C131.283 123.454 130.811 122.819 130.518 122.07C130.225 121.322 130.046 120.492 129.98 119.58H129.736C128.825 120.85 127.848 121.924 126.807 122.803C125.765 123.682 124.674 124.382 123.535 124.902C122.396 125.423 121.224 125.798 120.02 126.025C118.848 126.253 117.66 126.367 116.455 126.367C114.469 126.367 112.695 126.09 111.133 125.537C109.57 125.016 108.252 124.268 107.178 123.291C106.104 122.314 105.29 121.159 104.736 119.824C104.183 118.457 103.906 116.96 103.906 115.332C103.906 110.807 106.12 107.373 110.547 105.029C115.007 102.653 121.419 101.383 129.785 101.221C129.818 99.7559 129.834 98.4375 129.834 97.2656C129.867 96.0938 129.883 94.9382 129.883 93.7988C129.883 90.8366 129.264 88.7695 128.027 87.5977C126.823 86.3932 124.902 85.791 122.266 85.791C120.508 85.791 118.929 85.9863 117.529 86.377C116.162 86.7676 115.039 87.2884 114.16 87.9395C114.941 88.6882 115.511 89.4857 115.869 90.332C116.26 91.1458 116.455 91.9596 116.455 92.7734C116.455 94.1406 116.016 95.2799 115.137 96.1914C114.258 97.1029 113.053 97.5586 111.523 97.5586C110.872 97.5586 110.238 97.4609 109.619 97.2656C109.001 97.0703 108.464 96.7611 108.008 96.3379C107.552 95.9147 107.178 95.3939 106.885 94.7754C106.624 94.1243 106.494 93.3757 106.494 92.5293C106.494 91.1947 106.852 89.9089 107.568 88.6719C108.317 87.4023 109.408 86.2793 110.84 85.3027C112.305 84.3262 114.111 83.5449 116.26 82.959C118.441 82.373 120.98 82.0801 123.877 82.0801C126.221 82.0801 128.288 82.3079 130.078 82.7637C131.901 83.2194 133.431 83.9844 134.668 85.0586C135.938 86.1003 136.882 87.5 137.5 89.2578C138.151 91.0156 138.477 93.1966 138.477 95.8008C138.477 96.4518 138.46 97.526 138.428 99.0234C138.428 100.488 138.411 102.116 138.379 103.906C138.346 105.697 138.314 107.52 138.281 109.375C138.281 111.198 138.281 112.809 138.281 114.209C138.281 115.641 138.314 116.846 138.379 117.822C138.444 118.766 138.607 119.531 138.867 120.117C139.128 120.671 139.518 121.077 140.039 121.338C140.56 121.566 141.292 121.68 142.236 121.68C143.05 121.68 144.124 121.582 145.459 121.387V125ZM129.785 104.883C126.237 104.98 123.372 105.257 121.191 105.713C119.01 106.136 117.318 106.755 116.113 107.568C114.909 108.35 114.095 109.31 113.672 110.449C113.249 111.589 113.037 112.891 113.037 114.355C113.037 116.895 113.558 118.799 114.6 120.068C115.674 121.305 117.139 121.924 118.994 121.924C120.003 121.924 121.126 121.712 122.363 121.289C123.633 120.866 124.821 120.182 125.928 119.238C127.035 118.262 127.946 116.992 128.662 115.43C129.411 113.867 129.785 111.93 129.785 109.619V104.883ZM179.199 97.2168C179.036 95.1009 178.678 93.3105 178.125 91.8457C177.604 90.3809 176.888 89.1927 175.977 88.2812C175.065 87.3698 173.958 86.7188 172.656 86.3281C171.387 85.9049 169.922 85.6934 168.262 85.6934C166.992 85.6934 165.82 85.8236 164.746 86.084C163.672 86.3118 162.744 86.6862 161.963 87.207C161.182 87.6953 160.563 88.3464 160.107 89.1602C159.684 89.974 159.473 90.9505 159.473 92.0898C159.473 93.2292 159.668 94.1732 160.059 94.9219C160.482 95.638 161.149 96.2891 162.061 96.875C163.005 97.4284 164.193 97.9655 165.625 98.4863C167.09 99.0072 168.88 99.6257 170.996 100.342C172.689 100.928 174.365 101.546 176.025 102.197C177.686 102.848 179.167 103.662 180.469 104.639C181.803 105.615 182.878 106.803 183.691 108.203C184.505 109.57 184.912 111.247 184.912 113.232C184.912 115.479 184.408 117.432 183.398 119.092C182.389 120.752 181.055 122.119 179.395 123.193C177.734 124.268 175.846 125.065 173.73 125.586C171.615 126.107 169.45 126.367 167.236 126.367C166.064 126.367 164.811 126.302 163.477 126.172C162.174 126.042 160.872 125.863 159.57 125.635C158.301 125.407 157.08 125.146 155.908 124.854C154.769 124.528 153.76 124.202 152.881 123.877L152.539 109.717H155.908C156.071 112.191 156.413 114.274 156.934 115.967C157.487 117.627 158.236 118.962 159.18 119.971C160.156 120.98 161.328 121.696 162.695 122.119C164.095 122.542 165.723 122.754 167.578 122.754C168.978 122.754 170.264 122.64 171.436 122.412C172.64 122.152 173.682 121.761 174.561 121.24C175.439 120.687 176.123 119.971 176.611 119.092C177.132 118.213 177.393 117.155 177.393 115.918C177.393 114.844 177.197 113.965 176.807 113.281C176.416 112.565 175.798 111.93 174.951 111.377C174.105 110.824 173.014 110.303 171.68 109.814C170.345 109.326 168.75 108.757 166.895 108.105C165.039 107.454 163.249 106.787 161.523 106.104C159.831 105.387 158.333 104.541 157.031 103.564C155.729 102.555 154.688 101.351 153.906 99.9512C153.125 98.5514 152.734 96.8424 152.734 94.8242C152.734 92.6107 153.19 90.7064 154.102 89.1113C155.013 87.4837 156.217 86.1491 157.715 85.1074C159.245 84.0658 160.986 83.3008 162.939 82.8125C164.925 82.3242 166.976 82.0801 169.092 82.0801C170.166 82.0801 171.289 82.1452 172.461 82.2754C173.633 82.373 174.788 82.5195 175.928 82.7148C177.1 82.9102 178.206 83.138 179.248 83.3984C180.322 83.6263 181.299 83.8542 182.178 84.082L182.52 97.2168H179.199ZM231.299 111.768C230.257 116.488 228.239 120.101 225.244 122.607C222.249 125.114 218.359 126.367 213.574 126.367C210.286 126.367 207.357 125.798 204.785 124.658C202.214 123.486 200.033 121.908 198.242 119.922C196.452 117.936 195.085 115.625 194.141 112.988C193.197 110.319 192.725 107.487 192.725 104.492C192.725 101.432 193.213 98.5352 194.189 95.8008C195.166 93.0664 196.549 90.6901 198.34 88.6719C200.163 86.6536 202.327 85.0586 204.834 83.8867C207.373 82.6823 210.205 82.0801 213.33 82.0801C216.195 82.0801 218.766 82.5846 221.045 83.5938C223.324 84.6029 225.26 86.0189 226.855 87.8418C228.451 89.6322 229.671 91.7806 230.518 94.2871C231.396 96.7936 231.868 99.5443 231.934 102.539H202.49C202.458 103.092 202.441 103.467 202.441 103.662C202.441 103.825 202.441 103.923 202.441 103.955C202.441 107.796 202.718 110.921 203.271 113.33C203.857 115.739 204.655 117.627 205.664 118.994C206.706 120.329 207.926 121.24 209.326 121.729C210.758 122.217 212.337 122.461 214.062 122.461C215.658 122.461 217.155 122.249 218.555 121.826C219.987 121.403 221.273 120.736 222.412 119.824C223.551 118.88 224.544 117.676 225.391 116.211C226.27 114.714 226.969 112.923 227.49 110.84C228.141 110.905 228.792 111.019 229.443 111.182C230.094 111.344 230.713 111.54 231.299 111.768ZM222.07 98.7305C221.973 96.0286 221.68 93.8477 221.191 92.1875C220.736 90.4948 220.117 89.1764 219.336 88.2324C218.555 87.2884 217.627 86.6536 216.553 86.3281C215.511 85.9701 214.355 85.791 213.086 85.791C211.751 85.791 210.498 85.9863 209.326 86.377C208.187 86.7676 207.161 87.4512 206.25 88.4277C205.339 89.4043 204.574 90.7227 203.955 92.3828C203.369 94.043 202.962 96.1589 202.734 98.7305H222.07ZM254.883 121.094H262.207V125H238.77V121.094H246.094V57.959H238.77V54.0527H254.883V121.094ZM310.107 125C308.74 125.26 307.471 125.423 306.299 125.488C305.127 125.553 304.199 125.586 303.516 125.586C301.79 125.586 300.358 125.439 299.219 125.146C298.112 124.886 297.233 124.495 296.582 123.975C295.931 123.454 295.459 122.819 295.166 122.07C294.873 121.322 294.694 120.492 294.629 119.58H294.385C293.473 120.85 292.497 121.924 291.455 122.803C290.413 123.682 289.323 124.382 288.184 124.902C287.044 125.423 285.872 125.798 284.668 126.025C283.496 126.253 282.308 126.367 281.104 126.367C279.118 126.367 277.344 126.09 275.781 125.537C274.219 125.016 272.9 124.268 271.826 123.291C270.752 122.314 269.938 121.159 269.385 119.824C268.831 118.457 268.555 116.96 268.555 115.332C268.555 110.807 270.768 107.373 275.195 105.029C279.655 102.653 286.068 101.383 294.434 101.221C294.466 99.7559 294.482 98.4375 294.482 97.2656C294.515 96.0938 294.531 94.9382 294.531 93.7988C294.531 90.8366 293.913 88.7695 292.676 87.5977C291.471 86.3932 289.551 85.791 286.914 85.791C285.156 85.791 283.577 85.9863 282.178 86.377C280.811 86.7676 279.688 87.2884 278.809 87.9395C279.59 88.6882 280.16 89.4857 280.518 90.332C280.908 91.1458 281.104 91.9596 281.104 92.7734C281.104 94.1406 280.664 95.2799 279.785 96.1914C278.906 97.1029 277.702 97.5586 276.172 97.5586C275.521 97.5586 274.886 97.4609 274.268 97.2656C273.649 97.0703 273.112 96.7611 272.656 96.3379C272.201 95.9147 271.826 95.3939 271.533 94.7754C271.273 94.1243 271.143 93.3757 271.143 92.5293C271.143 91.1947 271.501 89.9089 272.217 88.6719C272.965 87.4023 274.056 86.2793 275.488 85.3027C276.953 84.3262 278.76 83.5449 280.908 82.959C283.089 82.373 285.628 82.0801 288.525 82.0801C290.869 82.0801 292.936 82.3079 294.727 82.7637C296.549 83.2194 298.079 83.9844 299.316 85.0586C300.586 86.1003 301.53 87.5 302.148 89.2578C302.799 91.0156 303.125 93.1966 303.125 95.8008C303.125 96.4518 303.109 97.526 303.076 99.0234C303.076 100.488 303.06 102.116 303.027 103.906C302.995 105.697 302.962 107.52 302.93 109.375C302.93 111.198 302.93 112.809 302.93 114.209C302.93 115.641 302.962 116.846 303.027 117.822C303.092 118.766 303.255 119.531 303.516 120.117C303.776 120.671 304.167 121.077 304.688 121.338C305.208 121.566 305.941 121.68 306.885 121.68C307.699 121.68 308.773 121.582 310.107 121.387V125ZM294.434 104.883C290.885 104.98 288.021 105.257 285.84 105.713C283.659 106.136 281.966 106.755 280.762 107.568C279.557 108.35 278.743 109.31 278.32 110.449C277.897 111.589 277.686 112.891 277.686 114.355C277.686 116.895 278.206 118.799 279.248 120.068C280.322 121.305 281.787 121.924 283.643 121.924C284.652 121.924 285.775 121.712 287.012 121.289C288.281 120.866 289.469 120.182 290.576 119.238C291.683 118.262 292.594 116.992 293.311 115.43C294.059 113.867 294.434 111.93 294.434 109.619V104.883Z" fill="#174169"/>
<path d="M137.562 30.1875C138.149 29.5015 138.878 28.9507 139.698 28.5731C140.518 28.1954 141.41 27.9999 142.312 28H195.688C196.59 27.9999 197.482 28.1954 198.302 28.5731C199.122 28.9507 199.851 29.5015 200.438 30.1875L216.744 49.2125C218.2 50.9115 219 53.0751 219 55.3125V56.9062C219 59.9999 218.034 63.0163 216.236 65.5339C214.439 68.0515 211.899 69.9445 208.973 70.9484C206.047 71.9523 202.88 72.0168 199.915 71.1329C196.951 70.2491 194.336 68.4611 192.438 66.0188C191.051 67.8048 189.274 69.2499 187.243 70.2433C185.211 71.2367 182.98 71.7521 180.719 71.75C178.458 71.7525 176.226 71.2373 174.194 70.2439C172.163 69.2505 170.386 67.8052 169 66.0188C167.614 67.8052 165.837 69.2505 163.806 70.2439C161.774 71.2373 159.542 71.7525 157.281 71.75C155.02 71.7525 152.788 71.2373 150.757 70.2439C148.726 69.2505 146.949 67.8052 145.562 66.0188C143.664 68.4611 141.049 70.2491 138.085 71.1329C135.12 72.0168 131.953 71.9523 129.027 70.9484C126.101 69.9445 123.561 68.0515 121.764 65.5339C119.966 63.0163 119 59.9999 119 56.9062V55.3125C119 53.0751 119.8 50.9115 121.256 49.2125L137.569 30.1812L137.562 30.1875ZM148.688 56.9062C148.688 59.1855 149.593 61.3713 151.205 62.9829C152.816 64.5946 155.002 65.5 157.281 65.5C159.56 65.5 161.746 64.5946 163.358 62.9829C164.97 61.3713 165.875 59.1855 165.875 56.9062C165.875 56.0774 166.204 55.2826 166.79 54.6965C167.376 54.1105 168.171 53.7812 169 53.7812C169.829 53.7812 170.624 54.1105 171.21 54.6965C171.796 55.2826 172.125 56.0774 172.125 56.9062C172.125 59.1855 173.03 61.3713 174.642 62.9829C176.254 64.5946 178.44 65.5 180.719 65.5C182.998 65.5 185.184 64.5946 186.795 62.9829C188.407 61.3713 189.312 59.1855 189.312 56.9062C189.312 56.0774 189.642 55.2826 190.228 54.6965C190.814 54.1105 191.609 53.7812 192.438 53.7812C193.266 53.7812 194.061 54.1105 194.647 54.6965C195.233 55.2826 195.562 56.0774 195.562 56.9062C195.562 59.1855 196.468 61.3713 198.08 62.9829C199.691 64.5946 201.877 65.5 204.156 65.5C206.435 65.5 208.621 64.5946 210.233 62.9829C211.845 61.3713 212.75 59.1855 212.75 56.9062V55.3125C212.75 54.5677 212.484 53.8473 212 53.2812L195.688 34.25H142.312L126 53.2812C125.516 53.8473 125.25 54.5677 125.25 55.3125V56.9062C125.25 59.1855 126.155 61.3713 127.767 62.9829C129.379 64.5946 131.565 65.5 133.844 65.5C136.123 65.5 138.309 64.5946 139.92 62.9829C141.532 61.3713 142.438 59.1855 142.438 56.9062C142.438 56.0774 142.767 55.2826 143.353 54.6965C143.939 54.1105 144.734 53.7812 145.562 53.7812C146.391 53.7812 147.186 54.1105 147.772 54.6965C148.358 55.2826 148.688 56.0774 148.688 56.9062Z" fill="#F35558"/>
</svg>
