<svg width="1145" height="86" viewBox="0 0 1145 86" fill="none" xmlns="http://www.w3.org/2000/svg">
<path opacity="0.5" d="M175.563 18.6033C108.851 16.9937 31.3911 37.7175 1 48.2806V85H1144V34.1964C1136.03 24.4716 1105.42 7.73835 1046.71 18.6033C988.005 29.4683 925.889 59.6821 902.169 73.4309C861.215 55.155 748.953 15.887 627.537 5.0221C475.767 -8.55908 431.293 27.6573 342.899 34.1964C254.506 40.7355 258.953 20.6153 175.563 18.6033Z" fill="#EEE0E3" stroke="#F3E7EA"/>
<path opacity="0.7" d="M364.659 44.5238C158.169 80.1429 36.1821 29.6825 1 0V85H1144V0C1089.64 20.2381 963.221 61.9286 892.39 66.7857C803.851 72.8571 622.772 0 364.659 44.5238Z" fill="#ECD9DE"/>
</svg>
