<svg width="411" height="57" viewBox="0 0 411 57" fill="none" xmlns="http://www.w3.org/2000/svg">
<path opacity="0.7" d="M130.765 29.8571C56.5148 53.7429 12.6508 19.9048 0 0V57H411V0C391.454 13.5714 345.995 41.5286 320.526 44.7857C288.689 48.8571 223.577 0 130.765 29.8571Z" fill="#ECD9DE"/>
<path opacity="0.5" d="M64.3113 20.2018C40.4981 19.3097 12.8482 30.7952 2 36.6495V57H410V28.8438C407.156 23.4542 396.228 14.1803 375.272 20.2019C354.317 26.2234 329.901 35.3802 321.434 43C306.815 32.8712 268.986 18.6964 225.646 12.6749C171.471 5.14798 155.595 25.2197 124.043 28.8438C92.4903 32.4678 94.0778 21.3169 64.3113 20.2018Z" fill="#EEE0E3"/>
</svg>
